<?xml version="1.0" encoding="UTF-8"?>
<svg version="1.1" xmlns="http://www.w3.org/2000/svg" width="115" height="150">
<path d="M0 0 C37.95 0 75.9 0 115 0 C115 49.5 115 99 115 150 C77.05 150 39.1 150 0 150 C0 100.5 0 51 0 0 Z " fill="#CDCCBF" transform="translate(0,0)"/>
<path d="M0 0 C11.77648085 0.50866998 11.77648085 0.50866998 15.93359375 3.296875 C17.1875 4.8125 17.1875 4.8125 19 8 C19.556875 8.886875 20.11375 9.77375 20.6875 10.6875 C21.120625 11.450625 21.55375 12.21375 22 13 C22.99 14.485 22.99 14.485 24 16 C24.14224892 18.69680238 24.15116682 21.19252412 24 23.875 C23.9572998 24.63369385 23.91459961 25.3923877 23.87060547 26.17407227 C23.35125632 32.49060648 21.44689552 37.41445903 18.5 43.0390625 C16.39245235 47.19927375 15.15856576 51.4978541 14 56 C15.65 56.33 17.3 56.66 19 57 C19 60.96 19 64.92 19 69 C20.32 69 21.64 69 23 69 C23 69.66 23 70.32 23 71 C23.66 71 24.32 71 25 71 C25.144375 70.4225 25.28875 69.845 25.4375 69.25 C25.95833333 67.16666667 26.47916667 65.08333333 27 63 C36.11655597 64.94259323 42.92844592 67.92844592 49.5625 74.5625 C51.83881209 80.00585499 51.31649405 85.18137863 51 91 C50.95069336 92.04510742 50.95069336 92.04510742 50.90039062 93.11132812 C50.2827474 106.15175781 50.2827474 106.15175781 49 110 C48.67 113.63 48.34 117.26 48 121 C12.69 121 -22.62 121 -59 121 C-59 102.85 -59 84.7 -59 66 C-57 68 -57 68 -57 71 C-56.05125 70.979375 -55.1025 70.95875 -54.125 70.9375 C-51 71 -51 71 -49 72 C-49 72.99 -49 73.98 -49 75 C-46.6037062 73.60216195 -44.30248311 72.24401999 -42.140625 70.5 C-39.78673593 68.85055948 -37.75463225 68.10613643 -35 67.3125 C-34.154375 67.06113281 -33.30875 66.80976562 -32.4375 66.55078125 C-30 66 -30 66 -26 66 C-26 68.31 -26 70.62 -26 73 C-23.36 72.67 -20.72 72.34 -18 72 C-18.2475 71.2265625 -18.2475 71.2265625 -18.5 70.4375 C-19.16025316 67.21876586 -19.17875792 64.27722861 -19 61 C-18.34 60.01 -17.68 59.02 -17 58 C-16.01 58 -15.02 58 -14 58 C-13.97164062 58.61746094 -13.94328125 59.23492187 -13.9140625 59.87109375 C-13.07727459 67.30041347 -10.12428308 70.45290136 -4.41015625 75.08984375 C-3.61480469 75.72019531 -2.81945313 76.35054688 -2 77 C-0.9826504 77.98234403 0.02604565 78.97461572 1 80 C1.47050781 79.45730469 1.94101562 78.91460937 2.42578125 78.35546875 C3.04839844 77.64003906 3.67101563 76.92460938 4.3125 76.1875 C4.92738281 75.47980469 5.54226562 74.77210937 6.17578125 74.04296875 C8 72 8 72 9.65234375 70.41015625 C11.79478817 68.16835209 12.30897209 65.99445428 13 63 C12.70108766 59.23257221 12.70108766 59.23257221 12 56 C11.09378906 55.96261719 10.18757813 55.92523438 9.25390625 55.88671875 C-0.33880576 55.36901683 -9.49799193 54.58712904 -17 48 C-18.25 44.375 -18.25 44.375 -19 41 C-19.66 40.34 -20.32 39.68 -21 39 C-22.48186119 34.03140659 -23.29928268 29.23671084 -23.75390625 24.078125 C-24.00171802 21.98549231 -24.44646861 20.03113997 -25 18 C-24.01 17.67 -23.02 17.34 -22 17 C-21.71125 16.113125 -21.4225 15.22625 -21.125 14.3125 C-19.40511286 9.24838788 -16.66904318 6.0756056 -12.1875 3.1875 C-8.38551332 1.77107359 -5.03002115 1.40983266 -1 1 C-0.67 0.67 -0.34 0.34 0 0 Z " fill="#232730" transform="translate(59,29)"/>
<path d="M0 0 C11.77648085 0.50866998 11.77648085 0.50866998 15.93359375 3.296875 C17.1875 4.8125 17.1875 4.8125 19 8 C19.556875 8.886875 20.11375 9.77375 20.6875 10.6875 C21.120625 11.450625 21.55375 12.21375 22 13 C22.66 13.99 23.32 14.98 24 16 C24.14224892 18.69680238 24.15116682 21.19252412 24 23.875 C23.9572998 24.63369385 23.91459961 25.3923877 23.87060547 26.17407227 C23.35125632 32.49060648 21.44689552 37.41445903 18.5 43.0390625 C16.39245235 47.19927375 15.15856576 51.4978541 14 56 C14.99 56.33 15.98 56.66 17 57 C16.34 57 15.68 57 15 57 C15 58.98 15 60.96 15 63 C14.67 63 14.34 63 14 63 C13.34 60.69 12.68 58.38 12 56 C11.09378906 55.96261719 10.18757813 55.92523438 9.25390625 55.88671875 C-0.33880576 55.36901683 -9.49799193 54.58712904 -17 48 C-18.25 44.375 -18.25 44.375 -19 41 C-19.66 40.34 -20.32 39.68 -21 39 C-22.48186119 34.03140659 -23.29928268 29.23671084 -23.75390625 24.078125 C-24.00171802 21.98549231 -24.44646861 20.03113997 -25 18 C-24.01 17.67 -23.02 17.34 -22 17 C-21.71125 16.113125 -21.4225 15.22625 -21.125 14.3125 C-19.40511286 9.24838788 -16.66904318 6.0756056 -12.1875 3.1875 C-8.38551332 1.77107359 -5.03002115 1.40983266 -1 1 C-0.67 0.67 -0.34 0.34 0 0 Z " fill="#9A7160" transform="translate(59,29)"/>
<path d="M0 0 C2 2 2 2 2 5 C3.423125 4.9690625 3.423125 4.9690625 4.875 4.9375 C8 5 8 5 10 6 C10 6.99 10 7.98 10 9 C13.53649016 6.94658342 13.53649016 6.94658342 16.75 4.4375 C20.25534367 2.19797488 23.93066892 1.77796035 28 1 C28 4.96 28 8.92 28 13 C27.01 12.34 26.02 11.68 25 11 C25 10.34 25 9.68 25 9 C24.34 9 23.68 9 23 9 C23.33 9.99 23.66 10.98 24 12 C23.67 12.99 23.34 13.98 23 15 C22.01 15 21.02 15 20 15 C20.37253906 15.61488281 20.74507812 16.22976562 21.12890625 16.86328125 C21.60199219 17.67152344 22.07507813 18.47976562 22.5625 19.3125 C23.03816406 20.11300781 23.51382812 20.91351563 24.00390625 21.73828125 C25 24 25 24 24 27 C23.34 26.67 22.68 26.34 22 26 C22 27.65 22 29.3 22 31 C23.32 31.33 24.64 31.66 26 32 C27.09853496 37.38282132 26.63657854 40.8014564 25 46 C24.75916686 49.45194174 25.14038264 51.56153056 26 55 C17.42 55 8.84 55 0 55 C0 36.85 0 18.7 0 0 Z " fill="#2C2C31" transform="translate(0,95)"/>
<path d="M0 0 C0.33 0 0.66 0 1 0 C1.11136149 7.22612316 0.99719764 14.41248361 0.5625 21.625 C0.52326416 22.31142578 0.48402832 22.99785156 0.44360352 23.70507812 C0.25064066 26.67692832 -0.05302817 29.15908452 -1 32 C-1.33 35.63 -1.66 39.26 -2 43 C-10.91 43 -19.82 43 -29 43 C-29 32 -29 32 -27 27 C-26.34 27 -25.68 27 -25 27 C-24.773125 26.4225 -24.54625 25.845 -24.3125 25.25 C-22.3174115 21.82984828 -19.53015675 19.6955258 -15.9375 18.0625 C-13.78601012 17.04656611 -13.78601012 17.04656611 -12.125 14.625 C-10 12 -10 12 -6.9375 10 C-2.92592313 7.26871362 -1.50929648 4.52788944 0 0 Z " fill="#2A2D33" transform="translate(109,107)"/>
<path d="M0 0 C11.77648085 0.50866998 11.77648085 0.50866998 15.93359375 3.296875 C17.1875 4.8125 17.1875 4.8125 19 8 C19.556875 8.886875 20.11375 9.77375 20.6875 10.6875 C21.120625 11.450625 21.55375 12.21375 22 13 C22.66 13.99 23.32 14.98 24 16 C24.0346457 18.88714173 23.95597552 21.6307131 23.75 24.5 C23.71003906 25.27214844 23.67007813 26.04429688 23.62890625 26.83984375 C23.38485515 30.64572166 23.15191697 32.77212455 21 36 C19.68 36 18.36 36 17 36 C16.94392578 34.77023438 16.94392578 34.77023438 16.88671875 33.515625 C16.82097656 32.43796875 16.75523438 31.3603125 16.6875 30.25 C16.62949219 29.18265625 16.57148437 28.1153125 16.51171875 27.015625 C15.96339094 23.78425805 15.06874731 22.46253031 13 20 C13 19.34 13 18.68 13 18 C12.34 18 11.68 18 11 18 C10.71125 17.030625 10.4225 16.06125 10.125 15.0625 C9.35785318 11.89335797 9.35785318 11.89335797 7 11 C4.33716789 11.06374571 1.71672365 11.18824724 -0.9375 11.375 C-1.66646484 11.41882812 -2.39542969 11.46265625 -3.14648438 11.5078125 C-6.2888831 11.71519353 -8.99942967 11.99980989 -12 13 C-12 14.65 -12 16.3 -12 18 C-12.99 18.33 -13.98 18.66 -15 19 C-17.81480703 22.71073136 -18.43486221 25.7144923 -18.6875 30.3125 C-18.75324219 31.38113281 -18.81898437 32.44976562 -18.88671875 33.55078125 C-18.92410156 34.35902344 -18.96148437 35.16726562 -19 36 C-19.66 36 -20.32 36 -21 36 C-22.89879656 32.07582044 -23.39020943 28.46630934 -23.75390625 24.18359375 C-23.99454846 22.04837163 -24.43211174 20.06974152 -25 18 C-24.01 17.67 -23.02 17.34 -22 17 C-21.71125 16.113125 -21.4225 15.22625 -21.125 14.3125 C-19.40511286 9.24838788 -16.66904318 6.0756056 -12.1875 3.1875 C-8.38551332 1.77107359 -5.03002115 1.40983266 -1 1 C-0.67 0.67 -0.34 0.34 0 0 Z " fill="#0A0807" transform="translate(59,29)"/>
<path d="M0 0 C3.14681674 -0.12940181 5.47660857 -0.00847421 8.33984375 1.3515625 C9.83984375 3.1640625 9.83984375 3.1640625 10.08984375 5.8515625 C10.00734375 6.6146875 9.92484375 7.3778125 9.83984375 8.1640625 C10.49984375 8.1640625 11.15984375 8.1640625 11.83984375 8.1640625 C15.63116932 12.17840722 16.10288078 15.02439906 16.08984375 20.5390625 C16.02594915 22.41482552 15.94898984 24.29038788 15.83984375 26.1640625 C17.15984375 26.1640625 18.47984375 26.1640625 19.83984375 26.1640625 C18.84191908 28.67006167 17.83662114 31.1718454 16.8046875 33.6640625 C16.46566406 34.4890625 16.12664062 35.3140625 15.77734375 36.1640625 C15.43574219 36.9890625 15.09414062 37.8140625 14.7421875 38.6640625 C13.84314242 41.15492333 13.291197 43.55831177 12.83984375 46.1640625 C13.82984375 46.4940625 14.81984375 46.8240625 15.83984375 47.1640625 C15.17984375 47.1640625 14.51984375 47.1640625 13.83984375 47.1640625 C13.83984375 49.1440625 13.83984375 51.1240625 13.83984375 53.1640625 C13.50984375 53.1640625 13.17984375 53.1640625 12.83984375 53.1640625 C12.17984375 50.8540625 11.51984375 48.5440625 10.83984375 46.1640625 C9.93363281 46.12667969 9.02742188 46.08929688 8.09375 46.05078125 C-8.66674029 45.14624685 -8.66674029 45.14624685 -14.72265625 39.9765625 C-15.19703125 39.3784375 -15.67140625 38.7803125 -16.16015625 38.1640625 C-13.39739448 38.68674716 -10.83406865 39.27275837 -8.16015625 40.1640625 C-6.26544809 40.232612 -4.36847285 40.24886622 -2.47265625 40.2265625 C-1.47878906 40.21753906 -0.48492187 40.20851562 0.5390625 40.19921875 C1.67794922 40.18181641 1.67794922 40.18181641 2.83984375 40.1640625 C3.16984375 39.5040625 3.49984375 38.8440625 3.83984375 38.1640625 C6.79804434 37.25814852 9.79994812 36.76347854 12.83984375 36.1640625 C12.34484375 28.7390625 12.34484375 28.7390625 11.83984375 21.1640625 C8.86984375 20.8340625 5.89984375 20.5040625 2.83984375 20.1640625 C2.83984375 19.1740625 2.83984375 18.1840625 2.83984375 17.1640625 C2.17984375 17.4940625 1.51984375 17.8240625 0.83984375 18.1640625 C1.16984375 17.1740625 1.49984375 16.1840625 1.83984375 15.1640625 C3.48984375 14.8340625 5.13984375 14.5040625 6.83984375 14.1640625 C3.86984375 13.6690625 3.86984375 13.6690625 0.83984375 13.1640625 C1.16984375 12.5040625 1.49984375 11.8440625 1.83984375 11.1640625 C2.49984375 11.1640625 3.15984375 11.1640625 3.83984375 11.1640625 C3.65421875 10.2153125 3.46859375 9.2665625 3.27734375 8.2890625 C2.83984375 5.1640625 2.83984375 5.1640625 3.83984375 3.1640625 C3.288125 3.50179687 2.73640625 3.83953125 2.16796875 4.1875 C-0.6632103 5.37507511 -2.38720281 5.18681953 -5.41015625 4.7890625 C-6.74820313 4.62277344 -6.74820313 4.62277344 -8.11328125 4.453125 C-9.12648438 4.31003906 -9.12648438 4.31003906 -10.16015625 4.1640625 C-10.16015625 5.8140625 -10.16015625 7.4640625 -10.16015625 9.1640625 C-11.48015625 9.1640625 -12.80015625 9.1640625 -14.16015625 9.1640625 C-14.16015625 9.8240625 -14.16015625 10.4840625 -14.16015625 11.1640625 C-13.02578125 11.3084375 -11.89140625 11.4528125 -10.72265625 11.6015625 C-7.16015625 12.1640625 -7.16015625 12.1640625 -6.16015625 13.1640625 C-6.11951793 14.83023365 -6.11743525 16.49794345 -6.16015625 18.1640625 C-7.81015625 18.4940625 -9.46015625 18.8240625 -11.16015625 19.1640625 C-11.16015625 17.8440625 -11.16015625 16.5240625 -11.16015625 15.1640625 C-12.48015625 14.5040625 -13.80015625 13.8440625 -15.16015625 13.1640625 C-17.60726001 15.03383347 -18.12947118 15.98908733 -18.671875 19.08203125 C-18.72988281 20.16097656 -18.78789063 21.23992188 -18.84765625 22.3515625 C-18.91339844 23.43824219 -18.97914062 24.52492188 -19.046875 25.64453125 C-19.08425781 26.47597656 -19.12164062 27.30742188 -19.16015625 28.1640625 C-20.15015625 27.8340625 -21.14015625 27.5040625 -22.16015625 27.1640625 C-21.50015625 26.8340625 -20.84015625 26.5040625 -20.16015625 26.1640625 C-20.2065625 25.36742188 -20.25296875 24.57078125 -20.30078125 23.75 C-20.63253067 14.01078497 -20.63253067 14.01078497 -18.34765625 10.4140625 C-17.62578125 9.6715625 -16.90390625 8.9290625 -16.16015625 8.1640625 C-15.17015625 8.1640625 -14.18015625 8.1640625 -13.16015625 8.1640625 C-13.22203125 7.3803125 -13.28390625 6.5965625 -13.34765625 5.7890625 C-13.28578125 4.9228125 -13.22390625 4.0565625 -13.16015625 3.1640625 C-8.97746209 0.37559972 -4.86841145 0.36975277 0 0 Z " fill="#6B5245" transform="translate(60.16015625,38.8359375)"/>
<path d="M0 0 C0.99 0.680625 0.99 0.680625 2 1.375 C9.03679669 5.18659821 16.16583474 5.29779537 24.0234375 5.55859375 C25.00570312 5.70425781 25.98796875 5.84992188 27 6 C29 9 29 9 28.75 12.375 C27.60675559 17.90068131 26.17691386 21.21745611 22.0625 25.125 C21.02802734 26.11886719 21.02802734 26.11886719 19.97265625 27.1328125 C19.32167969 27.74898437 18.67070313 28.36515625 18 29 C16.99665368 29.99664245 15.99530891 30.99533082 15 32 C14.56429687 31.48050781 14.12859375 30.96101563 13.6796875 30.42578125 C10.83113278 27.090136 8.0729019 23.91569423 4.625 21.1875 C2 19 2 19 1 16 C0.96045766 13.66700175 0.95598268 11.33291811 1 9 C0.34 8.67 -0.32 8.34 -1 8 C-0.34 8 0.32 8 1 8 C0.67 5.36 0.34 2.72 0 0 Z " fill="#BD9685" transform="translate(44,78)"/>
<path d="M0 0 C0.66 0.33 1.32 0.66 2 1 C1.67 11.89 1.34 22.78 1 34 C2.32 34.33 3.64 34.66 5 35 C5 55.79 5 76.58 5 98 C2.36 98 -0.28 98 -3 98 C-3.02705729 96.22925083 -3.04642195 94.45838289 -3.0625 92.6875 C-3.07410156 91.70136719 -3.08570312 90.71523437 -3.09765625 89.69921875 C-3 87 -3 87 -2 84 C-1.49508633 78.67658917 -1.25196007 73.34056533 -1 68 C-0.93296875 66.76765625 -0.8659375 65.5353125 -0.796875 64.265625 C-0.64228478 59.47332832 -0.59608449 55.94246952 -2.5 51.5 C-5.66721402 48.33278598 -9.08735321 46.1462577 -13 44 C-9.61682513 43.02408417 -7.4342662 43.14143345 -4 44 C-2.82149792 40.46449375 -2.70472805 37.34666349 -2.5 33.625 C-2.10401162 26.45478184 -2.10401162 26.45478184 -1.43359375 23.5234375 C-0.71057808 19.31561659 -1.35463278 15.10586982 -1.77148438 10.8828125 C-2.11529481 6.69385781 -1.93188095 3.76092413 0 0 Z " fill="#B1AFA1" transform="translate(110,52)"/>
<path d="M0 0 C0.5534764 2.07553648 1 3.84365964 1 6 C1.99 5.01 2.98 4.02 4 3 C3.15324537 6.91289773 1.54672023 10.27685019 -0.16015625 13.87890625 C-1.18407049 16.08466663 -1.18407049 16.08466663 -1 19 C-1.33 19.66 -1.66 20.32 -2 21 C-0.35 19.68 1.3 18.36 3 17 C2.34 16.67 1.68 16.34 1 16 C1 15.34 1 14.68 1 14 C4.70874866 10.55616196 8.25192336 7.89923065 13 6 C13.99 6.33 14.98 6.66 16 7 C14.88200014 8.33920838 13.75538103 9.67122556 12.625 11 C11.68527344 12.11375 11.68527344 12.11375 10.7265625 13.25 C10.15679687 13.8275 9.58703125 14.405 9 15 C8.34 15 7.68 15 7 15 C7 15.66 7 16.32 7 17 C13.17252553 11.68570186 13.17252553 11.68570186 19 6 C18.92685007 9.07229724 18.69400119 11.25362136 16.55078125 13.55859375 C15.32195394 14.58483781 14.07474222 15.58936444 12.8125 16.57421875 C10.83577648 18.0581008 10.83577648 18.0581008 8.75 20.375 C5.21929874 23.74521484 1.32346969 26.43693229 -2.671875 29.23046875 C-5.07873966 30.78958809 -5.07873966 30.78958809 -6 33 C-6.66 33 -7.32 33 -8 33 C-8.66 38.28 -9.32 43.56 -10 49 C-11.98 49 -13.96 49 -16 49 C-16 48.34 -16 47.68 -16 47 C-15.34 47 -14.68 47 -14 47 C-13.98541748 46.41508789 -13.97083496 45.83017578 -13.95581055 45.22753906 C-13.8811643 42.56770603 -13.78456101 39.90910552 -13.6875 37.25 C-13.66494141 36.32960937 -13.64238281 35.40921875 -13.61914062 34.4609375 C-13.58369141 33.57148438 -13.54824219 32.68203125 -13.51171875 31.765625 C-13.48553467 30.94868164 -13.45935059 30.13173828 -13.43237305 29.29003906 C-12.90598488 26.50205431 -11.92692846 25.05893413 -10 23 C-9.34 23 -8.68 23 -8 23 C-7.67 23.66 -7.34 24.32 -7 25 C-6.82984375 23.94941406 -6.6596875 22.89882812 -6.484375 21.81640625 C-5.15556478 13.99439793 -3.68451785 7.11493103 0 0 Z " fill="#1F2128" transform="translate(90,101)"/>
<path d="M0 0 C0.66 0 1.32 0 2 0 C2 2.64 2 5.28 2 8 C0.02 8.33 -1.96 8.66 -4 9 C-3.98839844 9.77085938 -3.97679688 10.54171875 -3.96484375 11.3359375 C-3.95582031 12.33882812 -3.94679688 13.34171875 -3.9375 14.375 C-3.92589844 15.37273438 -3.91429688 16.37046875 -3.90234375 17.3984375 C-4 20 -4 20 -5 22 C-6.32 22 -7.64 22 -9 22 C-9 22.66 -9 23.32 -9 24 C-8.01 24.33 -7.02 24.66 -6 25 C-7.96284503 27.65561386 -9.14020111 28.03313844 -12.4375 28.8125 C-15.86760546 28.99303187 -17.22578757 28.88646445 -20 27 C-20 24.36 -20 21.72 -20 19 C-18.35 18.34 -16.7 17.68 -15 17 C-15 17.66 -15 18.32 -15 19 C-11.81765895 17.24545615 -11.81765895 17.24545615 -9 15 C-8.95936168 13.33382885 -8.957279 11.66611905 -9 10 C-11.31 9.34 -13.62 8.68 -16 8 C-16 7.34 -16 6.68 -16 6 C-14.68 6 -13.36 6 -12 6 C-12 4.35 -12 2.7 -12 1 C-10.82630859 1.01740234 -10.82630859 1.01740234 -9.62890625 1.03515625 C-8.61699219 1.04417969 -7.60507812 1.05320313 -6.5625 1.0625 C-5.04849609 1.07990234 -5.04849609 1.07990234 -3.50390625 1.09765625 C-1.05978933 1.28612676 -1.05978933 1.28612676 0 0 Z " fill="#BA8874" transform="translate(62,42)"/>
<path d="M0 0 C0.33 0 0.66 0 1 0 C1 14.85 1 29.7 1 45 C-1.64 45 -4.28 45 -7 45 C-7.02705729 43.22925083 -7.04642195 41.45838289 -7.0625 39.6875 C-7.07410156 38.70136719 -7.08570312 37.71523437 -7.09765625 36.69921875 C-7 34 -7 34 -6 31 C-5.7846436 29.15628728 -5.61170319 27.30746019 -5.46484375 25.45703125 C-5.37783203 24.38388672 -5.29082031 23.31074219 -5.20117188 22.20507812 C-5.11416016 21.08552734 -5.02714844 19.96597656 -4.9375 18.8125 C-4.84662109 17.68134766 -4.75574219 16.55019531 -4.66210938 15.38476562 C-4.43806386 12.59009264 -4.21749856 9.79518889 -4 7 C-2.68 7 -1.36 7 0 7 C0 4.69 0 2.38 0 0 Z " fill="#91928F" transform="translate(114,105)"/>
<path d="M0 0 C6.34546975 5.77827692 6.7005567 14.31993489 7.125 22.37109375 C7.29649316 29.07004525 6.2633532 35.43507533 5 42 C1.125 40.125 1.125 40.125 0 39 C-0.08865208 36.1156618 -0.11521296 33.25537842 -0.09765625 30.37109375 C-0.0962413 29.50686295 -0.09482635 28.64263214 -0.09336853 27.75221252 C-0.08775239 24.98060708 -0.07519719 22.2090812 -0.0625 19.4375 C-0.05748708 17.5631522 -0.05292381 15.68880315 -0.04882812 13.81445312 C-0.03777772 9.20960456 -0.0205023 4.60481579 0 0 Z " fill="#020304" transform="translate(0,104)"/>
<path d="M0 0 C2.29109597 -0.08075665 4.58299267 -0.13907731 6.875 -0.1875 C8.78925781 -0.23970703 8.78925781 -0.23970703 10.7421875 -0.29296875 C12.35480469 -0.14794922 12.35480469 -0.14794922 14 0 C16 3 16 3 15.75 6.375 C14.60675559 11.90068131 13.17691386 15.21745611 9.0625 19.125 C8.37285156 19.78757812 7.68320313 20.45015625 6.97265625 21.1328125 C5.99619141 22.05707031 5.99619141 22.05707031 5 23 C4.01 23.99 3.02 24.98 2 26 C0.02 23.36 -1.96 20.72 -4 18 C-1.834375 18.061875 -1.834375 18.061875 0.375 18.125 C2.78927023 18.24253813 2.78927023 18.24253813 5 18 C7.29947981 16.02428215 7.29947981 16.02428215 8 12.5 C9 9 9 9 11 7 C11.6425235 4.93125966 11.6425235 4.93125966 12 3 C8.30245598 4.23251467 7.37767077 6.00873677 5 9 C4.34 9 3.68 9 3 9 C2.67 9.66 2.34 10.32 2 11 C1.34 10.67 0.68 10.34 0 10 C0.66 8.02 1.32 6.04 2 4 C1.34 4 0.68 4 0 4 C0 2.68 0 1.36 0 0 Z " fill="#A67F6F" transform="translate(57,84)"/>
<path d="M0 0 C4.45458992 2.2020803 7.36721885 4.15629703 10.1953125 8.3984375 C8.85713445 12.37812325 7.19193536 14.78592512 4.1953125 17.7109375 C3.4940625 18.40832031 2.7928125 19.10570313 2.0703125 19.82421875 C0.1953125 21.3984375 0.1953125 21.3984375 -1.8046875 21.3984375 C-1.8046875 19.3984375 -1.8046875 19.3984375 0.5078125 16.9609375 C1.3946875 16.1153125 2.2815625 15.2696875 3.1953125 14.3984375 C3.7934375 13.8003125 4.3915625 13.2021875 5.0078125 12.5859375 C5.3996875 12.1940625 5.7915625 11.8021875 6.1953125 11.3984375 C2.59294817 12.73645854 -0.5361233 14.38701338 -3.8046875 16.3984375 C-5.13077572 17.07940172 -6.46155351 17.75174336 -7.8046875 18.3984375 C-7.8046875 19.0584375 -7.8046875 19.7184375 -7.8046875 20.3984375 C-6.8146875 20.7284375 -5.8246875 21.0584375 -4.8046875 21.3984375 C-6.09433926 22.77406604 -7.43158043 24.10610143 -8.8046875 25.3984375 C-9.4646875 25.3984375 -10.1246875 25.3984375 -10.8046875 25.3984375 C-10.8046875 19.75298576 -9.76673462 14.75645331 -6.08203125 10.328125 C-4.85790397 9.1266202 -3.60788605 7.95065899 -2.328125 6.80859375 C-0.6859214 5.45473743 -0.6859214 5.45473743 0.1953125 3.3984375 C-1.1246875 3.7284375 -2.4446875 4.0584375 -3.8046875 4.3984375 C-3.8046875 3.0784375 -3.8046875 1.7584375 -3.8046875 0.3984375 C-1.8046875 -0.6015625 -1.8046875 -0.6015625 0 0 Z " fill="#2E3032" transform="translate(98.8046875,96.6015625)"/>
<path d="M0 0 C6.8347108 0.0568882 13.38217889 1.19467889 18.4375 6.25 C18.4375 7.24 18.4375 8.23 18.4375 9.25 C10.1875 9.25 1.9375 9.25 -6.5625 9.25 C-6.5625 0.0985607 -6.5625 0.0985607 0 0 Z " fill="#BB9E98" transform="translate(86.5625,140.75)"/>
<path d="M0 0 C1.82144531 -0.02513672 1.82144531 -0.02513672 3.6796875 -0.05078125 C7.360624 0.33734471 9.24298282 1.02289746 12.125 3.3125 C13 6.4375 13 6.4375 13.125 9.3125 C12.125 10.3125 12.125 10.3125 9.5625 10.375 C8.758125 10.354375 7.95375 10.33375 7.125 10.3125 C6 4.5625 6 4.5625 7.125 2.3125 C6.57328125 2.65023437 6.0215625 2.98796875 5.453125 3.3359375 C2.62194595 4.52351261 0.89795344 4.33525703 -2.125 3.9375 C-3.01703125 3.82664063 -3.9090625 3.71578125 -4.828125 3.6015625 C-5.50359375 3.50617187 -6.1790625 3.41078125 -6.875 3.3125 C-6.875 4.9625 -6.875 6.6125 -6.875 8.3125 C-8.195 8.3125 -9.515 8.3125 -10.875 8.3125 C-10.875 8.9725 -10.875 9.6325 -10.875 10.3125 C-9.740625 10.456875 -8.60625 10.60125 -7.4375 10.75 C-3.875 11.3125 -3.875 11.3125 -2.875 12.3125 C-2.83436168 13.97867115 -2.832279 15.64638095 -2.875 17.3125 C-4.525 17.6425 -6.175 17.9725 -7.875 18.3125 C-7.875 16.9925 -7.875 15.6725 -7.875 14.3125 C-9.195 13.6525 -10.515 12.9925 -11.875 12.3125 C-14.32210376 14.18227097 -14.84431493 15.13752483 -15.38671875 18.23046875 C-15.44472656 19.30941406 -15.50273438 20.38835938 -15.5625 21.5 C-15.62824219 22.58667969 -15.69398437 23.67335938 -15.76171875 24.79296875 C-15.79910156 25.62441406 -15.83648437 26.45585938 -15.875 27.3125 C-16.865 26.9825 -17.855 26.6525 -18.875 26.3125 C-18.215 25.9825 -17.555 25.6525 -16.875 25.3125 C-16.92140625 24.51585938 -16.9678125 23.71921875 -17.015625 22.8984375 C-17.34737442 13.15922247 -17.34737442 13.15922247 -15.0625 9.5625 C-13.9796875 8.44875 -13.9796875 8.44875 -12.875 7.3125 C-11.885 7.3125 -10.895 7.3125 -9.875 7.3125 C-9.936875 6.52875 -9.99875 5.745 -10.0625 4.9375 C-10.000625 4.07125 -9.93875 3.205 -9.875 2.3125 C-6.23103999 -0.11680667 -4.33587919 0.01375015 0 0 Z " fill="#9C7765" transform="translate(56.875,39.6875)"/>
<path d="M0 0 C0.66 0 1.32 0 2 0 C2 15.84 2 31.68 2 48 C0.35 48 -1.3 48 -3 48 C-2.67 36.78 -2.34 25.56 -2 14 C-2.66 13.67 -3.32 13.34 -4 13 C-3.67 11.02 -3.34 9.04 -3 7 C-2.67 7 -2.34 7 -2 7 C-1.34 4.69 -0.68 2.38 0 0 Z " fill="#C0C2B9" transform="translate(113,39)"/>
<path d="M0 0 C0.66 0 1.32 0 2 0 C2.66 1.98 3.32 3.96 4 6 C4.66 5.67 5.32 5.34 6 5 C6.51277829 8.12303802 7.00776825 11.24866322 7.5 14.375 C7.64308594 15.24511719 7.78617188 16.11523438 7.93359375 17.01171875 C8.87375971 23.05564276 9.17771303 28.88700101 9 35 C7.02 35 5.04 35 3 35 C0.40161194 31.17884108 1.20578018 28.40430992 2 24 C2.20002789 22.41820054 2.38727683 20.83473895 2.5625 19.25 C2.64628906 18.51265625 2.73007812 17.7753125 2.81640625 17.015625 C3.04535488 14.83938949 3.04535488 14.83938949 3 12 C1.35 12 -0.3 12 -2 12 C-1.67 10.02 -1.34 8.04 -1 6 C-0.34 6 0.32 6 1 6 C0.67 4.02 0.34 2.04 0 0 Z M2 29 C3 31 3 31 3 31 Z " fill="#15161B" transform="translate(23,115)"/>
<path d="M0 0 C0.5534764 2.07553648 1 3.84365964 1 6 C1.99 5.01 2.98 4.02 4 3 C3.34236101 6.1725661 2.2063933 8.70810919 0.6875 11.5625 C-1.64057597 16.09823422 -3.37308794 20.67531359 -5.0234375 25.4921875 C-6 28 -6 28 -8.1875 31.3125 C-11.41371093 36.44913387 -10.83711593 43.12802921 -11 49 C-12.65 49 -14.3 49 -16 49 C-16 48.34 -16 47.68 -16 47 C-15.34 47 -14.68 47 -14 47 C-13.98541748 46.41508789 -13.97083496 45.83017578 -13.95581055 45.22753906 C-13.8811643 42.56770603 -13.78456101 39.90910552 -13.6875 37.25 C-13.66494141 36.32960937 -13.64238281 35.40921875 -13.61914062 34.4609375 C-13.58369141 33.57148438 -13.54824219 32.68203125 -13.51171875 31.765625 C-13.48553467 30.94868164 -13.45935059 30.13173828 -13.43237305 29.29003906 C-12.90598488 26.50205431 -11.92692846 25.05893413 -10 23 C-9.34 23 -8.68 23 -8 23 C-7.67 23.66 -7.34 24.32 -7 25 C-6.82984375 23.94941406 -6.6596875 22.89882812 -6.484375 21.81640625 C-5.15556478 13.99439793 -3.68451785 7.11493103 0 0 Z " fill="#17191F" transform="translate(90,101)"/>
<path d="M0 0 C1.32 0 2.64 0 4 0 C4.33 4.29 4.66 8.58 5 13 C3.02 13 1.04 13 -1 13 C-1.33 14.65 -1.66 16.3 -2 18 C-3.65 18.33 -5.3 18.66 -7 19 C-7.33 19.99 -7.66 20.98 -8 22 C-8.66 22 -9.32 22 -10 22 C-10 22.66 -10 23.32 -10 24 C-13.4267062 26.54555318 -15.75393501 27.35383875 -20 27 C-20.33 27 -20.66 27 -21 27 C-21.66 26.34 -22.32 25.68 -23 25 C-22.02617818 22.48429364 -21.53848865 21.26055902 -19.0625 20.0625 C-17 20 -17 20 -15.37109375 21.49609375 C-14.69240234 22.24052734 -14.69240234 22.24052734 -14 23 C-13.52949219 22.45730469 -13.05898438 21.91460937 -12.57421875 21.35546875 C-11.95160156 20.64003906 -11.32898437 19.92460938 -10.6875 19.1875 C-10.07261719 18.47980469 -9.45773438 17.77210937 -8.82421875 17.04296875 C-7 15 -7 15 -5.34375 13.4375 C-3.32713512 11.28019106 -2.80706718 8.79369407 -2 6 C-1.34 6 -0.68 6 0 6 C0 4.02 0 2.04 0 0 Z " fill="#413839" transform="translate(74,86)"/>
<path d="M0 0 C1.32 0 2.64 0 4 0 C3.67 8.58 3.34 17.16 3 26 C2.34 25.34 1.68 24.68 1 24 C0.67 26.31 0.34 28.62 0 31 C-0.33 31 -0.66 31 -1 31 C-1.66 27.04 -2.32 23.08 -3 19 C-4.32 18.67 -5.64 18.34 -7 18 C-7.33 16.68 -7.66 15.36 -8 14 C-7.01 14 -6.02 14 -5 14 C-5 12.02 -5 10.04 -5 8 C-4.34 8 -3.68 8 -3 8 C-2.01 9.485 -2.01 9.485 -1 11 C-1.01160156 10.28972656 -1.02320313 9.57945313 -1.03515625 8.84765625 C-1.04869141 7.46900391 -1.04869141 7.46900391 -1.0625 6.0625 C-1.07410156 5.14597656 -1.08570313 4.22945313 -1.09765625 3.28515625 C-1 1 -1 1 0 0 Z " fill="#202024" transform="translate(28,96)"/>
<path d="M0 0 C0.95024979 3.69541586 0.95024979 6.30458414 0 10 C0.99 10.33 1.98 10.66 3 11 C2.34 11 1.68 11 1 11 C1 12.98 1 14.96 1 17 C0.67 17 0.34 17 0 17 C-0.66 14.69 -1.32 12.38 -2 10 C-2.90621094 9.96261719 -3.81242187 9.92523438 -4.74609375 9.88671875 C-21.50658404 8.98218435 -21.50658404 8.98218435 -27.5625 3.8125 C-28.036875 3.214375 -28.51125 2.61625 -29 2 C-26.23723823 2.52268466 -23.6739124 3.10869587 -21 4 C-19.10529184 4.0685495 -17.2083166 4.08480372 -15.3125 4.0625 C-14.31863281 4.05347656 -13.32476562 4.04445313 -12.30078125 4.03515625 C-11.54152344 4.02355469 -10.78226563 4.01195313 -10 4 C-9.67 3.34 -9.34 2.68 -9 2 C-2.88888889 0 -2.88888889 0 0 0 Z " fill="#856452" transform="translate(73,75)"/>
<path d="M0 0 C2 2 2 2 2 5 C3.423125 4.9690625 3.423125 4.9690625 4.875 4.9375 C8 5 8 5 10 6 C10 6.99 10 7.98 10 9 C10.66 9 11.32 9 12 9 C11.71515154 10.73030291 11.42180062 12.45920714 11.125 14.1875 C10.96257813 15.15042969 10.80015625 16.11335938 10.6328125 17.10546875 C10.01960483 19.91032604 9.14333657 22.37224747 8 25 C7.34 25 6.68 25 6 25 C5.73445312 24.09636719 5.46890625 23.19273438 5.1953125 22.26171875 C4.84210937 21.08222656 4.48890625 19.90273437 4.125 18.6875 C3.77695312 17.51574219 3.42890625 16.34398437 3.0703125 15.13671875 C2.11234547 11.89088275 2.11234547 11.89088275 0 9 C-0.1953125 6.73828125 -0.1953125 6.73828125 -0.125 4.3125 C-0.10695312 3.50425781 -0.08890625 2.69601563 -0.0703125 1.86328125 C-0.04710937 1.24839844 -0.02390625 0.63351563 0 0 Z " fill="#64635A" transform="translate(0,95)"/>
<path d="M0 0 C0.5534764 2.07553648 1 3.84365964 1 6 C1.99 6 2.98 6 4 6 C4.268125 5.38125 4.53625 4.7625 4.8125 4.125 C6 2 6 2 9 0 C11.26171875 -0.1953125 11.26171875 -0.1953125 13.6875 -0.125 C14.89986328 -0.09792969 14.89986328 -0.09792969 16.13671875 -0.0703125 C17.05904297 -0.03550781 17.05904297 -0.03550781 18 0 C18 0.33 18 0.66 18 1 C15.02148438 1.34179688 15.02148438 1.34179688 12.04296875 1.68359375 C9.80603607 1.97170735 9.80603607 1.97170735 7 3 C7 4.65 7 6.3 7 8 C6.01 8.33 5.02 8.66 4 9 C1.18519297 12.71073136 0.56513779 15.7144923 0.3125 20.3125 C0.24675781 21.38113281 0.18101563 22.44976562 0.11328125 23.55078125 C0.07589844 24.35902344 0.03851563 25.16726562 0 26 C-0.66 26 -1.32 26 -2 26 C-3.89879656 22.07582044 -4.39020943 18.46630934 -4.75390625 14.18359375 C-4.99454846 12.04837163 -5.43211174 10.06974152 -6 8 C-5.01 7.67 -4.02 7.34 -3 7 C-1.84164327 4.02496878 -1.84164327 4.02496878 -1 1 C-0.67 0.67 -0.34 0.34 0 0 Z " fill="#1B1917" transform="translate(40,39)"/>
<path d="M0 0 C2.0625 0.4375 2.0625 0.4375 4 1 C4.02718316 3.85423192 4.04692705 6.70820015 4.0625 9.5625 C4.07087891 10.36236328 4.07925781 11.16222656 4.08789062 11.98632812 C4.10742247 16.77163104 3.80437018 21.28145051 3 26 C2.34 26 1.68 26 1 26 C0.67 26.66 0.34 27.32 0 28 C-2.13750778 22.02152997 -2.11093741 16.91737094 -1.6875 10.625 C-1.63916016 9.71105469 -1.59082031 8.79710938 -1.54101562 7.85546875 C-1.14729676 1.14729676 -1.14729676 1.14729676 0 0 Z " fill="#B2B3AF" transform="translate(111,86)"/>
<path d="M0 0 C1.98 0.66 3.96 1.32 6 2 C5.67 3.32 5.34 4.64 5 6 C6.32 6.33 7.64 6.66 9 7 C7.75 8.5625 7.75 8.5625 6 10 C4 9.625 4 9.625 2 9 C1.01 9.33 0.02 9.66 -1 10 C-1.07654536 14.51617599 -1.10228696 18.59085217 0 23 C2.31 23.33 4.62 23.66 7 24 C7.33 25.32 7.66 26.64 8 28 C4.80371527 28.17074171 2.03229241 28.08035203 -1 27 C-3.75061133 23.36861549 -5 19.53004062 -5 15 C-4.34 15.33 -3.68 15.66 -3 16 C-3.02320313 15.16855469 -3.04640625 14.33710937 -3.0703125 13.48046875 C-3.08835938 12.39378906 -3.10640625 11.30710937 -3.125 10.1875 C-3.14820313 9.10855469 -3.17140625 8.02960937 -3.1953125 6.91796875 C-2.98525638 3.77973036 -2.26008978 2.26008978 0 0 Z " fill="#A28378" transform="translate(44,51)"/>
<path d="M0 0 C0.33 0.66 0.66 1.32 1 2 C2.65 1.67 4.3 1.34 6 1 C6 1.66 6 2.32 6 3 C7.32 2.67 8.64 2.34 10 2 C10 2.66 10 3.32 10 4 C9.01 4 8.02 4 7 4 C7 4.99 7 5.98 7 7 C7.99 7.33 8.98 7.66 10 8 C8.03715497 10.65561386 6.85979889 11.03313844 3.5625 11.8125 C0.13239454 11.99303187 -1.22578757 11.88646445 -4 10 C-4 7.36 -4 4.72 -4 2 C-2.68 1.34 -1.36 0.68 0 0 Z " fill="#C39181" transform="translate(46,59)"/>
<path d="M0 0 C1.32 0.33 2.64 0.66 4 1 C4.625 2.8125 4.625 2.8125 5 5 C4.01 6.485 4.01 6.485 3 8 C4.65 8.33 6.3 8.66 8 9 C7.67 9.99 7.34 10.98 7 12 C3.7 12.66 0.4 13.32 -3 14 C-3 13.34 -3 12.68 -3 12 C-4.65 12 -6.3 12 -8 12 C-8 11.34 -8 10.68 -8 10 C-5.5 8.375 -5.5 8.375 -3 7 C-3.66 6.67 -4.32 6.34 -5 6 C-5 5.34 -5 4.68 -5 4 C-3.68 4 -2.36 4 -1 4 C-0.67 2.68 -0.34 1.36 0 0 Z " fill="#956658" transform="translate(58,60)"/>
<path d="M0 0 C2.00292969 1.20825195 2.00292969 1.20825195 4 3 C4.27050781 5.17651367 4.27050781 5.17651367 3.953125 7.66796875 C3.85 8.56064453 3.746875 9.45332031 3.640625 10.37304688 C3.51171875 11.30181641 3.3828125 12.23058594 3.25 13.1875 C3.1365625 14.12787109 3.023125 15.06824219 2.90625 16.03710938 C2.62312024 18.3611328 2.32040393 20.68087077 2 23 C1.34 23 0.68 23 0 23 C0 23.66 0 24.32 0 25 C-0.66 25 -1.32 25 -2 25 C-2.05834353 21.77090994 -2.09371115 18.54195662 -2.125 15.3125 C-2.14175781 14.40048828 -2.15851563 13.48847656 -2.17578125 12.54882812 C-2.20936169 7.93151773 -2.23556185 4.18067669 0 0 Z " fill="#20242C" transform="translate(74,125)"/>
<path d="M0 0 C0.33 0 0.66 0 1 0 C1 8.25 1 16.5 1 25 C-0.65 25.66 -2.3 26.32 -4 27 C-4 20.4 -4 13.8 -4 7 C-2.68 7 -1.36 7 0 7 C0 4.69 0 2.38 0 0 Z " fill="#9E9F9E" transform="translate(114,105)"/>
<path d="M0 0 C-0.1875 1.8125 -0.1875 1.8125 -1 4 C-3.25 5.5 -3.25 5.5 -6 7 C-6.845625 7.721875 -7.69125 8.44375 -8.5625 9.1875 C-11 11 -11 11 -15 11 C-15 11.66 -15 12.32 -15 13 C-17.59240819 14.8597711 -20.14410847 16.57205423 -23 18 C-22.75 16.125 -22.75 16.125 -22 14 C-19.9375 12.75 -19.9375 12.75 -18 12 C-18 11.34 -18 10.68 -18 10 C-15.35153397 7.63785462 -13.38483604 6.12827868 -10 5 C-9.26676204 2.98491642 -9.26676204 2.98491642 -9 1 C-5.94152152 0.45627049 -3.11227195 0 0 0 Z " fill="#0F1219" transform="translate(82,98)"/>
<path d="M0 0 C0.66 0 1.32 0 2 0 C2 1.65 2 3.3 2 5 C1.01 5.33 0.02 5.66 -1 6 C-1 6.66 -1 7.32 -1 8 C0.134375 8.144375 1.26875 8.28875 2.4375 8.4375 C6 9 6 9 7 10 C7.04063832 11.66617115 7.042721 13.33388095 7 15 C5.35 15.33 3.7 15.66 2 16 C2 14.68 2 13.36 2 12 C0.68 11.34 -0.64 10.68 -2 10 C-4.44710376 11.86977097 -4.96931493 12.82502483 -5.51171875 15.91796875 C-5.56972656 16.99691406 -5.62773438 18.07585938 -5.6875 19.1875 C-5.75324219 20.27417969 -5.81898437 21.36085938 -5.88671875 22.48046875 C-5.92410156 23.31191406 -5.96148437 24.14335938 -6 25 C-6.99 24.67 -7.98 24.34 -9 24 C-8.34 23.67 -7.68 23.34 -7 23 C-7.04640625 22.20335938 -7.0928125 21.40671875 -7.140625 20.5859375 C-7.47237442 10.84672247 -7.47237442 10.84672247 -5.1875 7.25 C-4.1046875 6.13625 -4.1046875 6.13625 -3 5 C-2.01 5 -1.02 5 0 5 C0 3.35 0 1.7 0 0 Z " fill="#755B50" transform="translate(47,42)"/>
<path d="M0 0 C0.99 0 1.98 0 3 0 C3 12.87 3 25.74 3 39 C2.34 39 1.68 39 1 39 C0.67 39.66 0.34 40.32 0 41 C0.01740234 39.12054688 0.01740234 39.12054688 0.03515625 37.203125 C0.04453716 35.55208483 0.05363704 33.90104304 0.0625 32.25 C0.07087891 31.425 0.07925781 30.6 0.08789062 29.75 C0.09272461 28.55117188 0.09272461 28.55117188 0.09765625 27.328125 C0.10289307 26.5949707 0.10812988 25.86181641 0.11352539 25.10644531 C-0.0024891 22.9538151 -0.40926729 21.0685865 -1 19 C-0.01 19 0.98 19 2 19 C1.67 15.04 1.34 11.08 1 7 C0.67 7 0.34 7 0 7 C0 4.69 0 2.38 0 0 Z " fill="#D4D5D0" transform="translate(112,0)"/>
<path d="M0 0 C6.625 0.75 6.625 0.75 10 3 C9.67 6.63 9.34 10.26 9 14 C8.67 14 8.34 14 8 14 C7.67 12.35 7.34 10.7 7 9 C4.03 8.67 1.06 8.34 -2 8 C-2 7.01 -2 6.02 -2 5 C-2.99 5.495 -2.99 5.495 -4 6 C-3.67 5.01 -3.34 4.02 -3 3 C-1.35 2.67 0.3 2.34 2 2 C1.34 1.34 0.68 0.68 0 0 Z " fill="#836353" transform="translate(65,51)"/>
<path d="M0 0 C2.97 0.495 2.97 0.495 6 1 C6 1.99 6 2.98 6 4 C7.65 4 9.3 4 11 4 C11 4.66 11 5.32 11 6 C13.31 6 15.62 6 18 6 C17.34 7.65 16.68 9.3 16 11 C13.69 11 11.38 11 9 11 C8.67 9.35 8.34 7.7 8 6 C6.2984375 6.0309375 6.2984375 6.0309375 4.5625 6.0625 C1 6 1 6 0 5 C-0.04063832 3.33382885 -0.042721 1.66611905 0 0 Z " fill="#B68A79" transform="translate(43,69)"/>
<path d="M0 0 C0.66 0.33 1.32 0.66 2 1 C3.09163808 7.00400944 3.11227478 12.91221201 3 19 C1.02 19 -0.96 19 -3 19 C-4.13732426 15.59598052 -3.83989957 13.22543336 -3.0625 9.75 C-2.86785156 8.85796875 -2.67320313 7.9659375 -2.47265625 7.046875 C-2.31667969 6.37140625 -2.16070313 5.6959375 -2 5 C-1.67 5 -1.34 5 -1 5 C-0.67 3.35 -0.34 1.7 0 0 Z " fill="#101116" transform="translate(29,131)"/>
<path d="M0 0 C0.99 0 1.98 0 3 0 C3.08636719 0.66386719 3.17273437 1.32773438 3.26171875 2.01171875 C4.21825737 8.02299359 5.18149408 11.19591638 10 15 C8.02 15 6.04 15 4 15 C4 14.34 4 13.68 4 13 C2.35 13.33 0.7 13.66 -1 14 C-2.18005182 10.31233808 -2.20993972 6.84889483 -2 3 C-1.34 2.01 -0.68 1.02 0 0 Z " fill="#454140" transform="translate(42,87)"/>
<path d="M0 0 C1.22253011 3.66759033 1.29062383 6.38892814 0 10 C-1.84765625 12.359375 -1.84765625 12.359375 -4.0625 14.75 C-5.16271484 15.94882813 -5.16271484 15.94882813 -6.28515625 17.171875 C-6.85105469 17.77515625 -7.41695312 18.3784375 -8 19 C-10.64752004 16.42215154 -12.94432065 14.08351902 -15 11 C-14.06027344 11.03480469 -14.06027344 11.03480469 -13.1015625 11.0703125 C-11.87566406 11.09738281 -11.87566406 11.09738281 -10.625 11.125 C-9.40683594 11.15980469 -9.40683594 11.15980469 -8.1640625 11.1953125 C-5.78657757 11.21370051 -5.78657757 11.21370051 -4 9 C-3.67 7.845 -3.34 6.69 -3 5.5 C-2 2 -2 2 0 0 Z " fill="#AB8877" transform="translate(68,91)"/>
<path d="M0 0 C1.32229189 2.64458379 1.09677194 4.67761301 1.0625 7.625 C1.05347656 8.62789062 1.04445313 9.63078125 1.03515625 10.6640625 C1.02355469 11.43492188 1.01195312 12.20578125 1 13 C-1.64 13.33 -4.28 13.66 -7 14 C-7 11.69 -7 9.38 -7 7 C-7.66 6.67 -8.32 6.34 -9 6 C-8.071875 5.566875 -7.14375 5.13375 -6.1875 4.6875 C-3.52815927 3.27961373 -1.91894095 2.23876444 0 0 Z " fill="#A2A3A7" transform="translate(40,88)"/>
<path d="M0 0 C8.66212714 -0.38979572 14.94221872 -0.03466877 22.5 4.5 C22.995 4.995 23.49 5.49 24 6 C24 6.99 24 7.98 24 9 C21.3252832 7.97731417 18.93548442 6.95967776 16.5 5.4375 C11.16746034 3.24734978 5.7152966 3.24591039 0 3 C0 2.01 0 1.02 0 0 Z " fill="#DDD7DD" transform="translate(81,141)"/>
<path d="M0 0 C0.33 1.32 0.66 2.64 1 4 C0.21625 4.391875 -0.5675 4.78375 -1.375 5.1875 C-4.17183334 6.76135101 -4.17183334 6.76135101 -5 9.5 C-6.3286296 12.821574 -7.76947194 13.57255737 -11 15 C-13.75 15.1875 -13.75 15.1875 -16 15 C-16.33 15 -16.66 15 -17 15 C-17.66 14.34 -18.32 13.68 -19 13 C-18.02617818 10.48429364 -17.53848865 9.26055902 -15.0625 8.0625 C-13 8 -13 8 -11.37109375 9.49609375 C-10.91863281 9.99238281 -10.46617188 10.48867187 -10 11 C-9.52949219 10.45730469 -9.05898438 9.91460937 -8.57421875 9.35546875 C-7.95160156 8.64003906 -7.32898437 7.92460938 -6.6875 7.1875 C-6.07261719 6.47980469 -5.45773438 5.77210937 -4.82421875 5.04296875 C-3.26665665 3.29863261 -1.67341125 1.63221959 0 0 Z " fill="#453631" transform="translate(70,98)"/>
<path d="M0 0 C2.27741617 0.15025644 4.54881263 0.39608813 6.8125 0.6875 C8.05644531 0.83574219 9.30039063 0.98398437 10.58203125 1.13671875 C14.29566644 2.07467689 15.70848681 2.98120555 18 6 C18 6.66 18 7.32 18 8 C17.42378906 7.70480469 16.84757812 7.40960938 16.25390625 7.10546875 C8.51812151 3.31131436 2.53995786 2.67510934 -6 4 C-6 4.66 -6 5.32 -6 6 C-6.99 5.67 -7.98 5.34 -9 5 C-11.00875442 5.27571139 -13.01178687 5.60235737 -15 6 C-12.47566318 2.85745824 -10.28937732 2.44304948 -6.375 1.875 C-2.87811449 1.61266888 -2.87811449 1.61266888 0 0 Z " fill="#41403C" transform="translate(59,29)"/>
<path d="M0 0 C2.64 0 5.28 0 8 0 C9.16552619 4.19589427 9.08954032 4.82091936 7 9 C2.545 8.01 2.545 8.01 -2 7 C-1.34 4.69 -0.68 2.38 0 0 Z " fill="#B68471" transform="translate(63,60)"/>
<path d="M0 0 C2.76276177 0.52268466 5.3260876 1.10869587 8 2 C9.78879802 2.1190686 11.5822856 2.17522113 13.375 2.1875 C14.31085937 2.20167969 15.24671875 2.21585937 16.2109375 2.23046875 C19.17223394 1.98576778 21.28115366 1.15028115 24 0 C24.99 0 25.98 0 27 0 C27 0.66 27 1.32 27 2 C20.32801262 5.90555359 12.54258672 6.27103457 5 5 C2.0390625 2.46875 2.0390625 2.46875 0 0 Z " fill="#714F3C" transform="translate(44,77)"/>
<path d="M0 0 C2.91722548 -0.08103404 5.83219516 -0.14051081 8.75 -0.1875 C9.575 -0.21263672 10.4 -0.23777344 11.25 -0.26367188 C12.04921875 -0.27333984 12.8484375 -0.28300781 13.671875 -0.29296875 C14.4050293 -0.3086792 15.13818359 -0.32438965 15.89355469 -0.34057617 C18 0 18 0 22 3 C14.74 3 7.48 3 0 3 C0 2.01 0 1.02 0 0 Z " fill="#D1D0D6" transform="translate(4,147)"/>
<path d="M0 0 C0.99 0.33 1.98 0.66 3 1 C1.68 1.33 0.36 1.66 -1 2 C-0.67 1.34 -0.34 0.68 0 0 Z M-7 2 C-5.68 2.66 -4.36 3.32 -3 4 C-4.61594832 6.04119788 -6.2856382 8.04072937 -8 10 C-8.66 10 -9.32 10 -10 10 C-10.66 15.28 -11.32 20.56 -12 26 C-12.33 26 -12.66 26 -13 26 C-13.57374957 17.03675669 -13.55453211 10.33926702 -8 3 C-7.67 2.67 -7.34 2.34 -7 2 Z M-3 2 C-2.01 2.495 -2.01 2.495 -1 3 C-1.99 3.495 -1.99 3.495 -3 4 C-3 3.34 -3 2.68 -3 2 Z " fill="#25272F" transform="translate(92,124)"/>
<path d="M0 0 C1.00058075 3.00174224 1.31241431 4.87585686 1 8 C0.484375 8.433125 -0.03125 8.86625 -0.5625 9.3125 C-2.21636439 10.87937448 -2.21636439 10.87937448 -1.9765625 12.9609375 C-1.71403123 14.98313779 -1.36188248 16.99319713 -1 19 C-2.65 18.67 -4.3 18.34 -6 18 C-6.31289557 13.66759983 -5.28310924 10.70788868 -3.5625 6.75 C-3.11003906 5.69296875 -2.65757813 4.6359375 -2.19140625 3.546875 C-1 1 -1 1 0 0 Z " fill="#ACA49A" transform="translate(79,67)"/>
<path d="M0 0 C0.99 0 1.98 0 3 0 C2.45276317 3.37462715 1.9451 5.08235 0 8 C-0.38499891 9.65549531 -0.72793135 11.3222433 -1 13 C-1.33 12.34 -1.66 11.68 -2 11 C-3.65 11 -5.3 11 -7 11 C-6.58485103 6.1565954 -4.53791301 4.18412171 -1 1 C-0.67 0.67 -0.34 0.34 0 0 Z " fill="#B7907F" transform="translate(66,87)"/>
<path d="M0 0 C0.33 0 0.66 0 1 0 C1 4.62 1 9.24 1 14 C-0.051875 13.071875 -1.10375 12.14375 -2.1875 11.1875 C-4.97883017 8.78763687 -7.75681193 6.76901167 -11 5 C-7.67465243 3.89155081 -5.37817425 4.15545644 -2 5 C-1.34 3.35 -0.68 1.7 0 0 Z " fill="#A6A599" transform="translate(108,91)"/>
<path d="M0 0 C1.76923828 0.01353516 1.76923828 0.01353516 3.57421875 0.02734375 C4.47785156 0.03894531 5.38148437 0.05054687 6.3125 0.0625 C5.9825 1.0525 5.6525 2.0425 5.3125 3.0625 C2.0125 3.7225 -1.2875 4.3825 -4.6875 5.0625 C-4.6875 4.4025 -4.6875 3.7425 -4.6875 3.0625 C-6.3375 3.0625 -7.9875 3.0625 -9.6875 3.0625 C-9.6875 2.4025 -9.6875 1.7425 -9.6875 1.0625 C-6.26517028 -0.07827657 -3.60076783 -0.03565117 0 0 Z " fill="#7F5346" transform="translate(59.6875,68.9375)"/>
<path d="M0 0 C1.98 0.66 3.96 1.32 6 2 C5.67 3.32 5.34 4.64 5 6 C6.32 6.33 7.64 6.66 9 7 C7.6875 8.5 7.6875 8.5 6 10 C5.01 10 4.02 10 3 10 C3 9.34 3 8.68 3 8 C1.68 7.67 0.36 7.34 -1 7 C-0.67 4.69 -0.34 2.38 0 0 Z " fill="#8E6659" transform="translate(44,51)"/>
<path d="M0 0 C0.33 0 0.66 0 1 0 C1 6.27 1 12.54 1 19 C-0.65 19 -2.3 19 -4 19 C-4 18.34 -4 17.68 -4 17 C-3.34 17 -2.68 17 -2 17 C-1.93941406 15.85660156 -1.87882812 14.71320313 -1.81640625 13.53515625 C-1.73201572 12.04425695 -1.64736698 10.55337225 -1.5625 9.0625 C-1.50352539 7.93038086 -1.50352539 7.93038086 -1.44335938 6.77539062 C-1.11328125 1.11328125 -1.11328125 1.11328125 0 0 Z " fill="#05070D" transform="translate(78,131)"/>
<path d="M0 0 C0.66 0 1.32 0 2 0 C3 3 3 3 2 6 C2.53970279 8.3028615 2.53970279 8.3028615 3.4375 10.75 C4.83313102 15.07645617 5.29466641 18.48178179 5 23 C4.67 23 4.34 23 4 23 C3.34 19.04 2.68 15.08 2 11 C0.68 10.67 -0.64 10.34 -2 10 C-2.33 8.68 -2.66 7.36 -3 6 C-2.01 6 -1.02 6 0 6 C0 4.02 0 2.04 0 0 Z " fill="#202126" transform="translate(23,104)"/>
<path d="M0 0 C2 2 2 2 2 5 C3.423125 4.9690625 3.423125 4.9690625 4.875 4.9375 C8 5 8 5 10 6 C10 6.99 10 7.98 10 9 C10.66 9.33 11.32 9.66 12 10 C8.72724974 10 6.153368 9.70074844 3 9 C3 8.34 3 7.68 3 7 C2.01 7 1.02 7 0 7 C0 4.69 0 2.38 0 0 Z " fill="#A09E98" transform="translate(0,95)"/>
<path d="M0 0 C0.33 0.66 0.66 1.32 1 2 C1.99773437 2.41378906 1.99773437 2.41378906 3.015625 2.8359375 C5 4 5 4 5.609375 6.1640625 C5.65578125 6.97617188 5.7021875 7.78828125 5.75 8.625 C5.80671875 9.44226563 5.8634375 10.25953125 5.921875 11.1015625 C5.94765625 11.72804688 5.9734375 12.35453125 6 13 C5.34 13 4.68 13 4 13 C4 12.34 4 11.68 4 11 C2.68 11 1.36 11 0 11 C0 7.37 0 3.74 0 0 Z " fill="#787977" transform="translate(78,87)"/>
<path d="M0 0 C0 2.64 0 5.28 0 8 C-1.65 8.33 -3.3 8.66 -5 9 C-5 8.01 -5 7.02 -5 6 C-6.98 6 -8.96 6 -11 6 C-11 5.01 -11 4.02 -11 3 C-9.88625 3.0928125 -9.88625 3.0928125 -8.75 3.1875 C-5.00949297 2.93246543 -3.49394693 0 0 0 Z " fill="#B8846D" transform="translate(64,42)"/>
<path d="M0 0 C2.4375 0.625 2.4375 0.625 5 2 C5.875 5.0625 5.875 5.0625 6 8 C5 9 5 9 2.4375 9.0625 C1.633125 9.041875 0.82875 9.02125 0 9 C-1.125 3.375 -1.125 3.375 0 0 Z " fill="#926953" transform="translate(64,41)"/>
<path d="M0 0 C4.04271473 4.04271473 5.82987557 8.27800907 6.1875 14 C6.125625 14.66 6.06375 15.32 6 16 C5.34 14.68 4.68 13.36 4 12 C2.68 12 1.36 12 0 12 C0 8.04 0 4.08 0 0 Z " fill="#0D0D0E" transform="translate(0,104)"/>
<path d="M0 0 C1.65 0.99 3.3 1.98 5 3 C4.67 3.66 4.34 4.32 4 5 C3.9283265 7.55157655 3.90691558 10.07472971 3.9375 12.625 C3.94426758 13.68460938 3.94426758 13.68460938 3.95117188 14.765625 C3.96296125 16.51045275 3.98089676 18.255237 4 20 C2 19 2 19 1 16 C0.96045766 13.66700175 0.95598268 11.33291811 1 9 C0.34 8.67 -0.32 8.34 -1 8 C-0.34 8 0.32 8 1 8 C0.67 5.36 0.34 2.72 0 0 Z " fill="#9E897C" transform="translate(44,78)"/>
<path d="M0 0 C1.32 0.33 2.64 0.66 4 1 C4.33 3.31 4.66 5.62 5 8 C5.99 8.33 6.98 8.66 8 9 C7.34 10.65 6.68 12.3 6 14 C4.68 14 3.36 14 2 14 C1.93941406 13.15695313 1.87882812 12.31390625 1.81640625 11.4453125 C1.73261719 10.34960938 1.64882812 9.25390625 1.5625 8.125 C1.48128906 7.03445312 1.40007812 5.94390625 1.31640625 4.8203125 C1.16998297 2.05271029 1.16998297 2.05271029 0 0 Z " fill="#20130F" transform="translate(74,51)"/>
<path d="M0 0 C1.63427842 3.26855684 0.35200277 6.60167334 -0.3125 10.0625 C-0.44333984 10.80822266 -0.57417969 11.55394531 -0.70898438 12.32226562 C-1.06760902 14.22973295 -1.52681373 16.11767751 -2 18 C-2.66 18.33 -3.32 18.66 -4 19 C-4 18.01 -4 17.02 -4 16 C-5.98 16.33 -7.96 16.66 -10 17 C-10 16.01 -10 15.02 -10 14 C-7.69 14.33 -5.38 14.66 -3 15 C-2.95101562 14.16855469 -2.90203125 13.33710937 -2.8515625 12.48046875 C-2.73941406 10.85044922 -2.73941406 10.85044922 -2.625 9.1875 C-2.55539063 8.10855469 -2.48578125 7.02960938 -2.4140625 5.91796875 C-2 3 -2 3 0 0 Z " fill="#434546" transform="translate(86,108)"/>
<path d="M0 0 C0.99 0 1.98 0 3 0 C3.66 0.66 4.32 1.32 5 2 C7.32275177 2.40047444 9.65739357 2.7397104 12 3 C12 3.66 12 4.32 12 5 C11.34 5 10.68 5 10 5 C9.67 5.66 9.34 6.32 9 7 C7 7 5 7 3 7 C0 2.92857143 0 2.92857143 0 0 Z " fill="#73726C" transform="translate(0,102)"/>
<path d="M0 0 C0.66 0 1.32 0 2 0 C2.144375 0.7425 2.28875 1.485 2.4375 2.25 C2.90565053 4.88686483 2.90565053 4.88686483 3.6875 6.875 C4.4505226 12.06355367 1.7980244 16.80296341 -1 21 C-1 18.57170664 -0.91868747 16.1918667 -0.78125 13.76953125 C-0.73613281 12.96708984 -0.69101563 12.16464844 -0.64453125 11.33789062 C-0.59683594 10.50451172 -0.54914063 9.67113281 -0.5 8.8125 C-0.45230469 7.96751953 -0.40460938 7.12253906 -0.35546875 6.25195312 C-0.23772712 4.16792636 -0.11896189 2.08395747 0 0 Z " fill="#929185" transform="translate(82,44)"/>
<path d="M0 0 C2 3 2 3 1.625 5.1875 C1.41875 5.785625 1.2125 6.38375 1 7 C0.34 7 -0.32 7 -1 7 C-1 7.66 -1 8.32 -1 9 C-0.01 9.33 0.98 9.66 2 10 C0.71034824 11.37562854 -0.62689293 12.70766393 -2 14 C-2.66 14 -3.32 14 -4 14 C-4 10.46073835 -3.68300652 8.55607152 -2.5625 5.3125 C-2.29566406 4.52488281 -2.02882813 3.73726563 -1.75390625 2.92578125 C-1 1 -1 1 0 0 Z " fill="#272931" transform="translate(92,108)"/>
<path d="M0 0 C0.33 0 0.66 0 1 0 C1.6875 2.8125 1.6875 2.8125 2 6 C0.8125 7.875 0.8125 7.875 -1 9 C-2.32 9 -3.64 9 -5 9 C-5.0825 8.21625 -5.165 7.4325 -5.25 6.625 C-5.4975 5.75875 -5.745 4.8925 -6 4 C-7.32 3.34 -8.64 2.68 -10 2 C-7.03 2.33 -4.06 2.66 -1 3 C-0.67 2.01 -0.34 1.02 0 0 Z " fill="#A57A67" transform="translate(71,65)"/>
<path d="M0 0 C3.63 0.33 7.26 0.66 11 1 C10.01 2.485 10.01 2.485 9 4 C6.6171875 4.29296875 6.6171875 4.29296875 3.875 4.1875 C2.96492188 4.16042969 2.05484375 4.13335937 1.1171875 4.10546875 C0.41851562 4.07066406 -0.28015625 4.03585938 -1 4 C-0.67 2.68 -0.34 1.36 0 0 Z " fill="#CF9B85" transform="translate(84,146)"/>
<path d="M0 0 C0.33 0 0.66 0 1 0 C1.11138159 5.45769811 0.91657981 10.61509359 0 16 C-0.66 16 -1.32 16 -2 16 C-2 16.66 -2 17.32 -2 18 C-2.66 18 -3.32 18 -4 18 C-4 15.03 -4 12.06 -4 9 C-3.01 9.495 -3.01 9.495 -2 10 C-1.34 6.7 -0.68 3.4 0 0 Z " fill="#141721" transform="translate(76,132)"/>
<path d="M0 0 C1.84765625 0.33984375 1.84765625 0.33984375 4.0625 0.9375 C5.16271484 1.22947266 5.16271484 1.22947266 6.28515625 1.52734375 C7.13400391 1.76130859 7.13400391 1.76130859 8 2 C7.67 2.66 7.34 3.32 7 4 C4.4375 4.625 4.4375 4.625 2 5 C2.66 5 3.32 5 4 5 C3.34 6.32 2.68 7.64 2 9 C1.01 8.67 0.02 8.34 -1 8 C-1.04241723 5.66705225 -1.04092937 3.33297433 -1 1 C-0.67 0.67 -0.34 0.34 0 0 Z " fill="#906A5C" transform="translate(60,50)"/>
<path d="M0 0 C2 2 2 2 2 5 C2.99 5.33 3.98 5.66 5 6 C1.98968256 6.93423645 1.13349732 7.04449911 -2 6 C-2.33 6.33 -2.66 6.66 -3 7 C-3.66 6.34 -4.32 5.68 -5 5 C-4.1875 3.0625 -4.1875 3.0625 -3 1 C-2.01 0.67 -1.02 0.34 0 0 Z " fill="#404246" transform="translate(56,106)"/>
<path d="M0 0 C0.33 0 0.66 0 1 0 C1.33 2.31 1.66 4.62 2 7 C2.85464844 7.06058594 3.70929687 7.12117188 4.58984375 7.18359375 C6.24693359 7.30927734 6.24693359 7.30927734 7.9375 7.4375 C9.03964844 7.51871094 10.14179687 7.59992187 11.27734375 7.68359375 C14 8 14 8 15 9 C15.04063832 10.66617115 15.042721 12.33388095 15 14 C13 11 13 11 13 9 C10.36 9 7.72 9 5 9 C4.67 9.99 4.34 10.98 4 12 C4 11.34 4 10.68 4 10 C2.68 9.67 1.36 9.34 0 9 C0 6.03 0 3.06 0 0 Z " fill="#A57665" transform="translate(58,51)"/>
<path d="M0 0 C3.3 0.33 6.6 0.66 10 1 C10 1.99 10 2.98 10 4 C8.52093108 4.02689216 7.04172517 4.04634621 5.5625 4.0625 C4.32693359 4.07990234 4.32693359 4.07990234 3.06640625 4.09765625 C1 4 1 4 0 3 C0 2.01 0 1.02 0 0 Z " fill="#69463C" transform="translate(62,54)"/>
<path d="M0 0 C2 2 2 2 2.1953125 4.3828125 C2.17210937 5.28773438 2.14890625 6.19265625 2.125 7.125 C2.10695313 8.03507813 2.08890625 8.94515625 2.0703125 9.8828125 C2.04710937 10.58148438 2.02390625 11.28015625 2 12 C0.35 11.67 -1.3 11.34 -3 11 C-3 9.68 -3 8.36 -3 7 C-2.34 7 -1.68 7 -1 7 C-0.67 4.69 -0.34 2.38 0 0 Z " fill="#040609" transform="translate(30,138)"/>
<path d="M0 0 C2.64 0.33 5.28 0.66 8 1 C7.67 1.99 7.34 2.98 7 4 C6.34 3.67 5.68 3.34 5 3 C4.87625 3.78375 4.7525 4.5675 4.625 5.375 C4 8 4 8 2 10 C1.77213542 7.98177083 1.54427083 5.96354167 1.31640625 3.9453125 C1.08707039 1.92595684 1.08707039 1.92595684 0 0 Z " fill="#B4B3AA" transform="translate(81,89)"/>
<path d="M0 0 C1.66611905 -0.042721 3.33382885 -0.04063832 5 0 C6 1 6 1 6.0625 3.5625 C6.041875 4.366875 6.02125 5.17125 6 6 C4.35 6.33 2.7 6.66 1 7 C1 5.68 1 4.36 1 3 C0.67 2.01 0.34 1.02 0 0 Z " fill="#704A3E" transform="translate(48,51)"/>
<path d="M0 0 C-0.33 0.99 -0.66 1.98 -1 3 C-2.98 3.33 -4.96 3.66 -7 4 C-7.33 4.99 -7.66 5.98 -8 7 C-8.66 7 -9.32 7 -10 7 C-9.67 5.02 -9.34 3.04 -9 1 C-5.94152152 0.45627049 -3.11227195 0 0 0 Z " fill="#0A0B0F" transform="translate(82,98)"/>
<path d="M0 0 C0.66 0.66 1.32 1.32 2 2 C1.67176873 6.34906427 0.80260764 10.0342632 -1 14 C-1.99 12.68 -2.98 11.36 -4 10 C-3.525625 9.46375 -3.05125 8.9275 -2.5625 8.375 C-0.71813924 5.57157164 -0.37543153 3.30379742 0 0 Z " fill="#967667" transform="translate(71,85)"/>
<path d="M0 0 C1.125 1.75 1.125 1.75 2 4 C1.125 6.25 1.125 6.25 0 8 C-1.32 7.34 -2.64 6.68 -4 6 C-3.67 4.35 -3.34 2.7 -3 1 C-2.01 0.67 -1.02 0.34 0 0 Z " fill="#C08E79" transform="translate(68,61)"/>
<path d="M0 0 C0.33 0 0.66 0 1 0 C1 3.96 1 7.92 1 12 C0.34 12 -0.32 12 -1 12 C-2.11445498 9.77109005 -2.16480286 8.46944894 -2.1875 6 C-2.20167969 5.29875 -2.21585938 4.5975 -2.23046875 3.875 C-2 2 -2 2 0 0 Z " fill="#110B09" transform="translate(39,53)"/>
<path d="M0 0 C2.64 0 5.28 0 8 0 C8 0.33 8 0.66 8 1 C6.02 1 4.04 1 2 1 C1.67 2.65 1.34 4.3 1 6 C-0.65 6.33 -2.3 6.66 -4 7 C-4.33 7.99 -4.66 8.98 -5 10 C-5.33 9.01 -5.66 8.02 -6 7 C-5.195625 6.5875 -4.39125 6.175 -3.5625 5.75 C-0.85890282 4.26547669 -0.85890282 4.26547669 -0.1875 1.8125 C-0.125625 1.214375 -0.06375 0.61625 0 0 Z " fill="#312D30" transform="translate(71,98)"/>
<path d="M0 0 C-1.66602782 1.66602782 -3.90610316 1.48306753 -6.1875 1.8125 C-11.1287713 2.65534706 -14.12987113 3.86205767 -18 7 C-17.13564543 4.01404787 -16.64924738 2.39348326 -13.9375 0.75 C-3.71830986 -1.85915493 -3.71830986 -1.85915493 0 0 Z " fill="#8F8F87" transform="translate(59,30)"/>
<path d="M0 0 C2.49361571 1.20381448 4.68143083 2.45428722 7 4 C7 4.99 7 5.98 7 7 C3.66666667 5.66666667 0.33333333 4.33333333 -3 3 C-2.01 2.67 -1.02 2.34 0 2 C0 1.34 0 0.68 0 0 Z " fill="#CDC5C0" transform="translate(98,143)"/>
<path d="M0 0 C1.32 0 2.64 0 4 0 C4 0.66 4 1.32 4 2 C5.98 2 7.96 2 10 2 C10 2.66 10 3.32 10 4 C5.48281619 5.36884358 2.41225737 4.47075246 -2 3 C-1.34 2.01 -0.68 1.02 0 0 Z " fill="#101113" transform="translate(42,100)"/>
<path d="M0 0 C5.445 1.485 5.445 1.485 11 3 C9.02 3.99 9.02 3.99 7 5 C4.75 4.125 4.75 4.125 3 3 C1.35 4.32 -0.3 5.64 -2 7 C-1.34 4.69 -0.68 2.38 0 0 Z " fill="#484B43" transform="translate(86,92)"/>
<path d="M0 0 C0.71542969 0.14308594 1.43085937 0.28617187 2.16796875 0.43359375 C3.56982422 0.71396484 3.56982422 0.71396484 5 1 C8.99414062 1.79882812 8.99414062 1.79882812 12.98828125 2.59765625 C13.98408203 2.79681641 13.98408203 2.79681641 15 3 C15 3.33 15 3.66 15 4 C11.64141186 4.65867457 8.42743722 5.1465164 5 5 C1.875 2.5625 1.875 2.5625 0 0 Z " fill="#876451" transform="translate(44,77)"/>
<path d="M0 0 C0 0.33 0 0.66 0 1 C-2.97851562 1.34179688 -2.97851562 1.34179688 -5.95703125 1.68359375 C-8.19396393 1.97170735 -8.19396393 1.97170735 -11 3 C-11 4.65 -11 6.3 -11 8 C-12.32 8.33 -13.64 8.66 -15 9 C-14.18820936 5.95578511 -13.47032662 3.56439194 -11.4375 1.125 C-7.70452428 -0.59791187 -4.04542182 -0.23338972 0 0 Z " fill="#3E2F28" transform="translate(58,39)"/>
<path d="M0 0 C6.625 0.625 6.625 0.625 10 4 C6.7 4 3.4 4 0 4 C0 2.66666667 0 1.33333333 0 0 Z " fill="#AE8E7E" transform="translate(93,146)"/>
<path d="M0 0 C1.20628008 2.33214148 2.1654738 4.49642139 3 7 C0.525 8.485 0.525 8.485 -2 10 C-2.33 8.35 -2.66 6.7 -3 5 C-2.34 4.67 -1.68 4.34 -1 4 C-0.34786708 1.97536745 -0.34786708 1.97536745 0 0 Z " fill="#383738" transform="translate(9,115)"/>
<path d="M0 0 C0.66 0 1.32 0 2 0 C3.10228696 4.40914783 3.07654536 8.48382401 3 13 C0.77992545 9.19415791 -0.08856417 5.27673737 -1 1 C-0.67 0.67 -0.34 0.34 0 0 Z " fill="#15161B" transform="translate(25,107)"/>
<path d="M0 0 C0.33 0 0.66 0 1 0 C1.33 3.3 1.66 6.6 2 10 C0.35 10 -1.3 10 -3 10 C-2.67 8.68 -2.34 7.36 -2 6 C-1.34 6 -0.68 6 0 6 C-0.2784375 4.7934375 -0.2784375 4.7934375 -0.5625 3.5625 C-0.706875 2.716875 -0.85125 1.87125 -1 1 C-0.67 0.67 -0.34 0.34 0 0 Z " fill="#11131B" transform="translate(69,140)"/>
<path d="M0 0 C0.99 0.33 1.98 0.66 3 1 C3.33 2.98 3.66 4.96 4 7 C2.35 6.67 0.7 6.34 -1 6 C-1.042721 4.33388095 -1.04063832 2.66617115 -1 1 C-0.67 0.67 -0.34 0.34 0 0 Z " fill="#BAAEA0" transform="translate(74,79)"/>
<path d="M0 0 C1.32 0 2.64 0 4 0 C4 2.31 4 4.62 4 7 C4.66 7.33 5.32 7.66 6 8 C4.68 9.32 3.36 10.64 2 12 C1.85714286 4.57142857 1.85714286 4.57142857 3 1 C2.01 0.67 1.02 0.34 0 0 Z " fill="#3D3D41" transform="translate(29,95)"/>
<path d="M0 0 C-0.33 1.32 -0.66 2.64 -1 4 C-3.07553648 4.5534764 -4.84365964 5 -7 5 C-6.67 3.68 -6.34 2.36 -6 1 C-3.92446352 0.4465236 -2.15634036 0 0 0 Z " fill="#D0A697" transform="translate(64,98)"/>
<path d="M0 0 C2.64 0.33 5.28 0.66 8 1 C8.33 2.32 8.66 3.64 9 5 C6.03 4.67 3.06 4.34 0 4 C0 2.68 0 1.36 0 0 Z " fill="#9E7969" transform="translate(43,74)"/>
<path d="M0 0 C1.10844919 3.32534757 0.84454356 5.62182575 0 9 C-0.33 9 -0.66 9 -1 9 C-1.33 7.35 -1.66 5.7 -2 4 C-4.97 3.67 -7.94 3.34 -11 3 C-11 2.67 -11 2.34 -11 2 C-10.06027344 1.90912109 -10.06027344 1.90912109 -9.1015625 1.81640625 C-7.87566406 1.69072266 -7.87566406 1.69072266 -6.625 1.5625 C-5.81289062 1.48128906 -5.00078125 1.40007813 -4.1640625 1.31640625 C-1.95727195 1.10909886 -1.95727195 1.10909886 0 0 Z " fill="#8F6C59" transform="translate(74,56)"/>
<path d="M0 0 C2 2 2 2 2 5 C2.99 5.33 3.98 5.66 5 6 C5.33 6.99 5.66 7.98 6 9 C5.01 9 4.02 9 3 9 C3 8.34 3 7.68 3 7 C2.01 7 1.02 7 0 7 C0 4.69 0 2.38 0 0 Z " fill="#939288" transform="translate(0,95)"/>
<path d="M0 0 C1.65 0 3.3 0 5 0 C4.34 1.65 3.68 3.3 3 5 C1.02 5 -0.96 5 -3 5 C-2.01 4.67 -1.02 4.34 0 4 C0 2.68 0 1.36 0 0 Z " fill="#AA7E6F" transform="translate(56,75)"/>
<path d="M0 0 C0.66 0 1.32 0 2 0 C1.46274105 3.37705625 0.88935377 6.696686 0 10 C-0.66 10 -1.32 10 -2 10 C-2.17942163 6.05272412 -2.09350689 3.4019487 0 0 Z " fill="#3B2C26" transform="translate(75,69)"/>
<path d="M0 0 C0 1.65 0 3.3 0 5 C-1.98 5.99 -1.98 5.99 -4 7 C-4.33 6.01 -4.66 5.02 -5 4 C-1.125 0 -1.125 0 0 0 Z " fill="#1A2020" transform="translate(89,95)"/>
<path d="M0 0 C2.35981813 0.93578995 4.69631264 1.93347808 7 3 C4.01758453 3.77321882 1.02419525 4.41196203 -2 5 C-2 3.68 -2 2.36 -2 1 C-1.34 0.67 -0.68 0.34 0 0 Z " fill="#383838" transform="translate(97,96)"/>
<path d="M0 0 C-0.33 0.99 -0.66 1.98 -1 3 C-4.16700931 4.05566977 -4.96428241 3.97926374 -8 3 C-8.66 2.67 -9.32 2.34 -10 2 C-8.71211992 1.46987262 -7.41953322 0.9511671 -6.125 0.4375 C-5.40570312 0.14746094 -4.68640625 -0.14257812 -3.9453125 -0.44140625 C-2 -1 -2 -1 0 0 Z " fill="#464646" transform="translate(28,97)"/>
<path d="M0 0 C0.99 0 1.98 0 3 0 C2.67 2.64 2.34 5.28 2 8 C1.67 7.34 1.34 6.68 1 6 C0.34 6 -0.32 6 -1 6 C-1.042721 4.33388095 -1.04063832 2.66617115 -1 1 C-0.67 0.67 -0.34 0.34 0 0 Z " fill="#241C1B" transform="translate(42,87)"/>
<path d="M0 0 C2.0625 0.4375 2.0625 0.4375 4 1 C3.6875 2.875 3.6875 2.875 3 5 C2.01 5.66 1.02 6.32 0 7 C-0.38133299 5.0085944 -0.71325582 3.00720923 -1 1 C-0.67 0.67 -0.34 0.34 0 0 Z " fill="#D7A290" transform="translate(46,63)"/>
<path d="M0 0 C0.33 0.99 0.66 1.98 1 3 C0.67 3.33 0.34 3.66 0 4 C-0.07205511 5.68608966 -0.08386068 7.37500659 -0.0625 9.0625 C-0.05347656 9.98160156 -0.04445312 10.90070312 -0.03515625 11.84765625 C-0.02355469 12.55792969 -0.01195312 13.26820312 0 14 C-0.33 14 -0.66 14 -1 14 C-1.06058594 13.39671875 -1.12117188 12.7934375 -1.18359375 12.171875 C-1.30927734 10.97304688 -1.30927734 10.97304688 -1.4375 9.75 C-1.51871094 8.96109375 -1.59992187 8.1721875 -1.68359375 7.359375 C-1.97634993 5.17635361 -2.42064419 3.1226818 -3 1 C-2.01 0.67 -1.02 0.34 0 0 Z " fill="#515450" transform="translate(37,46)"/>
<path d="M0 0 C3.75 0.8125 3.75 0.8125 7 2 C7 2.33 7 2.66 7 3 C3.37 3 -0.26 3 -4 3 C-2.68 2.01 -1.36 1.02 0 0 Z " fill="#4D505A" transform="translate(86,138)"/>
<path d="M0 0 C0.33 0 0.66 0 1 0 C1 2.64 1 5.28 1 8 C0.01 8 -0.98 8 -2 8 C-2.125 5.125 -2.125 5.125 -2 2 C-1.34 1.34 -0.68 0.68 0 0 Z " fill="#D8D6DA" transform="translate(35,94)"/>
<path d="M0 0 C0.33 2.64 0.66 5.28 1 8 C0.01 8.495 0.01 8.495 -1 9 C-1.33 6.69 -1.66 4.38 -2 2 C-2.99 2.495 -2.99 2.495 -4 3 C-4.66 2.34 -5.32 1.68 -6 1 C-4 0 -4 0 0 0 Z " fill="#868588" transform="translate(37,93)"/>
<path d="M0 0 C0.33 0.66 0.66 1.32 1 2 C0.06553465 4.03144641 -0.93224776 6.03533587 -2 8 C-2.99 7.67 -3.98 7.34 -5 7 C-4.60196439 4.11424181 -4.20990931 3.17810487 -1.9375 1.25 C-1.298125 0.8375 -0.65875 0.425 0 0 Z " fill="#AF8879" transform="translate(64,90)"/>
<path d="M0 0 C1.32 0 2.64 0 4 0 C3.67 1.65 3.34 3.3 3 5 C2.01 5.33 1.02 5.66 0 6 C0 4.02 0 2.04 0 0 Z " fill="#33281E" transform="translate(74,86)"/>
<path d="M0 0 C1.98 0.66 3.96 1.32 6 2 C5.67 2.66 5.34 3.32 5 4 C3.35 4 1.7 4 0 4 C-0.33 4.99 -0.66 5.98 -1 7 C-0.67 4.69 -0.34 2.38 0 0 Z " fill="#997668" transform="translate(44,51)"/>
<path d="M0 0 C2.64 0.33 5.28 0.66 8 1 C7.0409375 1.433125 7.0409375 1.433125 6.0625 1.875 C3.84793921 2.82823451 3.84793921 2.82823451 3 5 C3 4.34 3 3.68 3 3 C2.01 2.67 1.02 2.34 0 2 C0 1.34 0 0.68 0 0 Z " fill="#AB8270" transform="translate(49,82)"/>
<path d="M0 0 C0 0.99 0 1.98 0 3 C-6.0546875 3.1953125 -6.0546875 3.1953125 -8 3 C-8.66 2.34 -9.32 1.68 -10 1 C-2.25 0 -2.25 0 0 0 Z " fill="#C89883" transform="translate(59,48)"/>
<path d="M0 0 C1.21236328 0.04060547 1.21236328 0.04060547 2.44921875 0.08203125 C3.06410156 0.11683594 3.67898437 0.15164062 4.3125 0.1875 C3.3225 0.5175 2.3325 0.8475 1.3125 1.1875 C1.3125 1.8475 1.3125 2.5075 1.3125 3.1875 C0.3225 2.8575 -0.6675 2.5275 -1.6875 2.1875 C-3.69625442 2.46321139 -5.69928687 2.78985737 -7.6875 3.1875 C-5.26849268 0.20484049 -3.789448 -0.16475861 0 0 Z " fill="#272621" transform="translate(51.6875,31.8125)"/>
<path d="M0 0 C1.98 0 3.96 0 6 0 C6 1.98 6 3.96 6 6 C5.34 6 4.68 6 4 6 C3.67 5.01 3.34 4.02 3 3 C1.50014391 1.33289654 1.50014391 1.33289654 0 0 Z " fill="#535352" transform="translate(101,144)"/>
<path d="M0 0 C0.33 0 0.66 0 1 0 C1 2.31 1 4.62 1 7 C-2.875 5.25 -2.875 5.25 -4 3 C-2.68 2.67 -1.36 2.34 0 2 C0 1.34 0 0.68 0 0 Z " fill="#0A0A0B" transform="translate(4,139)"/>
<path d="M0 0 C0.33 0 0.66 0 1 0 C1 2.64 1 5.28 1 8 C-0.65 7.67 -2.3 7.34 -4 7 C-3.01 6.67 -2.02 6.34 -1 6 C-1.020625 5.195625 -1.04125 4.39125 -1.0625 3.5625 C-1 1 -1 1 0 0 Z " fill="#1E1F28" transform="translate(82,115)"/>
<path d="M0 0 C2.50037734 2.17424117 3.43628586 3.73045798 4 7 C3.01 7.33 2.02 7.66 1 8 C0 7 0 7 -0.0625 3.4375 C-0.041875 2.303125 -0.02125 1.16875 0 0 Z " fill="#151414" transform="translate(0,104)"/>
<path d="M0 0 C2.98704569 0.49784095 4.39324263 1.26216175 7 3 C5.125 4.0625 5.125 4.0625 3 5 C2.34 4.67 1.68 4.34 1 4 C1 3.34 1 2.68 1 2 C0.34 1.67 -0.32 1.34 -1 1 C-0.67 0.67 -0.34 0.34 0 0 Z " fill="#202126" transform="translate(37,101)"/>
<path d="M0 0 C1.32 0.66 2.64 1.32 4 2 C2.02 4.97 2.02 4.97 0 8 C-0.98120464 4.94736336 -0.98120464 3.05263664 0 0 Z " fill="#1D1E28" transform="translate(81,125)"/>
<path d="M0 0 C2.31 0.33 4.62 0.66 7 1 C7 1.66 7 2.32 7 3 C6.34 3 5.68 3 5 3 C4.67 3.66 4.34 4.32 4 5 C2.68 4.34 1.36 3.68 0 3 C0 2.01 0 1.02 0 0 Z " fill="#807F77" transform="translate(5,104)"/>
<path d="M0 0 C6.52307692 0.61538462 6.52307692 0.61538462 8.9375 2.5625 C9.288125 3.036875 9.63875 3.51125 10 4 C8.02 4 6.04 4 4 4 C4 3.34 4 2.68 4 2 C2.68 2 1.36 2 0 2 C0 1.34 0 0.68 0 0 Z " fill="#393531" transform="translate(42,98)"/>
<path d="M0 0 C0.66 0 1.32 0 2 0 C2.33 1.98 2.66 3.96 3 6 C1.68 6 0.36 6 -1 6 C-0.67 4.02 -0.34 2.04 0 0 Z " fill="#9C9D9F" transform="translate(79,91)"/>
<path d="M0 0 C2.5 1 2.5 1 5 3 C5.46837899 5.79374292 5.23424505 8.14221036 5 11 C4.67 11 4.34 11 4 11 C3.71125 9.9275 3.4225 8.855 3.125 7.75 C2.27179891 4.90599636 1.4363497 2.56491017 0 0 Z " fill="#A59187" transform="translate(38,66)"/>
<path d="M0 0 C0.66 0 1.32 0 2 0 C1.67 1.98 1.34 3.96 1 6 C-0.32 5.67 -1.64 5.34 -3 5 C-1.625 2.5 -1.625 2.5 0 0 Z " fill="#B07D63" transform="translate(62,42)"/>
<path d="M0 0 C1.65 0 3.3 0 5 0 C3.6875 2 3.6875 2 2 4 C1.01 4 0.02 4 -1 4 C-0.67 2.68 -0.34 1.36 0 0 Z " fill="#D2A28D" transform="translate(84,146)"/>
<path d="M0 0 C0.33 0.66 0.66 1.32 1 2 C1.66 2 2.32 2 3 2 C2.39816251 4.02045442 1.72693904 6.02111039 1 8 C0.01 8.495 0.01 8.495 -1 9 C-0.67 6.03 -0.34 3.06 0 0 Z " fill="#2D3131" transform="translate(89,94)"/>
</svg>
